<?xml version="1.0" standalone="no"?>
<!DOCTYPE svg PUBLIC "-//W3C//DTD SVG 20010904//EN"
 "http://www.w3.org/TR/2001/REC-SVG-20010904/DTD/svg10.dtd">
<svg version="1.0" xmlns="http://www.w3.org/2000/svg"
 width="260.000000pt" height="260.000000pt" viewBox="0 0 260.000000 260.000000"
 preserveAspectRatio="xMidYMid meet">
<metadata>
Created by potrace 1.14, written by Peter Selinger 2001-2017
</metadata>
<g transform="translate(0.000000,260.000000) scale(0.100000,-0.100000)"
fill="#000000" stroke="none">
<path d="M323 2189 c-149 -25 -268 -140 -308 -297 -14 -54 -16 -131 -12 -600
3 -470 5 -543 20 -587 54 -161 150 -253 295 -284 37 -8 334 -11 990 -11 1021
0 1003 -1 1094 56 86 53 150 146 180 259 10 38 13 179 13 605 0 554 0 555 -23
610 -46 113 -132 199 -237 237 -47 17 -107 18 -1005 19 -525 1 -979 -2 -1007
-7z"/>
</g>
</svg>
